<?xml version="1.0" encoding="UTF-8"?>
<svg version="1.1" xmlns="http://www.w3.org/2000/svg" width="96" height="96">
<path d="M0 0 C7.27363642 5.18041951 13.38523045 11.95089541 15 21 C15.80514858 32.95843622 15.20180936 42.20675407 7.3125 51.8125 C0.84781999 58.63968543 -6.17674344 62.0363516 -15.53295898 62.29296875 C-26.87993194 62.39890385 -34.5696962 60.22382749 -43.01953125 52.22265625 C-50.84579928 43.43932981 -51.70102447 34.23967387 -51.17041016 22.93994141 C-50.41145414 14.30002093 -45.30627922 7.61912753 -39 2 C-27.90432514 -5.63397006 -11.777235 -7.28383001 0 0 Z M-38.4375 11.375 C-44.31537632 19.18441642 -45.13190201 26.30876278 -44 36 C-41.43036362 44.53119278 -36.32741808 49.35056036 -28.9375 53.875 C-22.47120734 56.29257789 -14.61264142 56.08814501 -8.08203125 54.12109375 C-1.02699712 50.88709172 4.74992367 45.62143909 7.5234375 38.203125 C9.3435724 29.78873088 8.91612215 21.60980532 4.55078125 14.12109375 C0.71040447 8.86838696 -4.51447321 4.40289764 -11 3 C-21.83381321 1.81092294 -30.81838049 3.12250625 -38.4375 11.375 Z " fill="#F6B92E" transform="translate(66,19)"/>
<path d="M0 0 C2.76276177 0.52268466 5.3260876 1.10869587 8 2 C13.79386145 2.29460312 18.42937983 1.59160576 24 0 C24.3125 2.25 24.3125 2.25 24 5 C19.66519718 9.21764599 16.08903848 10.29311092 10.06640625 10.2265625 C5.92996572 9.77303972 2.88768006 7.88768006 0 5 C-0.125 2.375 -0.125 2.375 0 0 Z " fill="#F6BB2D" transform="translate(36,55)"/>
<path d="M0 0 C1.4540625 0.0309375 1.4540625 0.0309375 2.9375 0.0625 C4.0625 6.8125 4.0625 6.8125 2.9375 9.0625 C0.93795254 9.10504356 -1.06291636 9.10330783 -3.0625 9.0625 C-4.0625 8.0625 -4.0625 8.0625 -4.1875 4.5625 C-4.02748906 0.08219365 -4.02748906 0.08219365 0 0 Z " fill="#F6BB2D" transform="translate(58.0625,35.9375)"/>
<path d="M0 0 C1.99954746 -0.04254356 4.00041636 -0.04080783 6 0 C7 1 7 1 7.125 4.5 C7 8 7 8 6 9 C4.00041636 9.04080783 1.99954746 9.04254356 0 9 C-1.125 2.25 -1.125 2.25 0 0 Z " fill="#F5BB2D" transform="translate(35,36)"/>
</svg>
