<?xml version="1.0" encoding="UTF-8"?>
<svg version="1.1" xmlns="http://www.w3.org/2000/svg" width="94" height="94">
<path d="M0 0 C1.78216164 -0.01902626 1.78216164 -0.01902626 3.60032654 -0.03843689 C4.88472122 -0.03550125 6.16911591 -0.03256561 7.49243164 -0.02954102 C8.8104628 -0.03478287 10.12849396 -0.04002472 11.48646545 -0.04542542 C14.27655604 -0.05435998 17.06636047 -0.05193011 19.85644531 -0.04199219 C23.42897424 -0.03050626 27.00051419 -0.05070459 30.57291317 -0.07990932 C33.98363843 -0.10268793 37.3941321 -0.09580413 40.80493164 -0.09204102 C42.72848732 -0.10889198 42.72848732 -0.10889198 44.69090271 -0.12608337 C45.88216263 -0.11670242 47.07342255 -0.10732147 48.30078125 -0.09765625 C49.34874374 -0.09749008 50.39670624 -0.09732391 51.47642517 -0.09715271 C54.93550184 0.53589642 56.12893779 1.611902 58.21508789 4.40405273 C58.46508789 8.15405273 58.46508789 8.15405273 58.21508789 11.40405273 C59.30821289 11.50717773 60.40133789 11.61030273 61.52758789 11.71655273 C65.21508789 12.40405273 65.21508789 12.40405273 67.15258789 13.46655273 C70.10532442 18.85095465 67.79087014 25.91213697 66.65258789 31.57983398 C66.08723508 35.22938829 66.15169061 38.72832453 66.34008789 42.40795898 C66.21508789 44.40405273 66.21508789 44.40405273 64.21508789 46.40405273 C63.55134111 49.12833899 63.55134111 49.12833899 63.10180664 52.32983398 C62.80693359 54.11357422 62.80693359 54.11357422 62.50610352 55.93334961 C62.10587069 58.44225244 61.71513814 60.95269046 61.33422852 63.46459961 C60.49771268 68.4433482 59.77787953 72.46247972 57.17211914 76.82202148 C53.95421417 78.5436219 53.16684414 78.52732085 49.69116211 78.11181641 C48.80062637 78.00551407 47.91009064 77.89921173 46.99256897 77.78968811 C42.52506902 77.16940449 38.08266702 76.44423699 33.64086914 75.66186523 C32.67279831 75.49282684 31.70472748 75.32378845 30.70732117 75.14962769 C28.67757602 74.79356365 26.64818498 74.43547554 24.61914062 74.07543945 C21.52695632 73.52894111 18.43267767 72.99560507 15.33813477 72.46264648 C13.35557096 72.1131903 11.37314403 71.76295653 9.39086914 71.41186523 C8.47404861 71.25549591 7.55722809 71.09912659 6.61262512 70.9380188 C1.43032835 70.00252714 -3.08385071 68.81282216 -7.78491211 66.40405273 C-9.12713891 63.71959914 -8.92686669 61.63084792 -8.94604492 58.625 C-8.95565247 57.41356827 -8.96526001 56.20213654 -8.97515869 54.95399475 C-8.97940857 53.63942795 -8.98365845 52.32486115 -8.98803711 50.97045898 C-8.99378834 49.61286924 -8.99954608 48.25527951 -9.00531006 46.89768982 C-9.01581825 44.0504417 -9.0216623 41.20322181 -9.02514648 38.35595703 C-9.0306352 34.70616151 -9.05467151 31.05673831 -9.08311844 27.40705967 C-9.10173325 24.60266526 -9.10694975 21.79836081 -9.10848236 18.99390984 C-9.11298506 16.99358179 -9.1316358 14.99330187 -9.15045166 12.99305725 C-9.14745056 11.77847336 -9.14444946 10.56388947 -9.14135742 9.3125 C-9.14500305 8.2415358 -9.14864868 7.17057159 -9.15240479 6.06715393 C-8.78491211 3.40405273 -8.78491211 3.40405273 -7.62419128 1.56002808 C-5.02273885 -0.07496835 -3.06339524 0.01580596 0 0 Z " fill="#B53822" transform="translate(16.784912109375,7.595947265625)"/>
<path d="M0 0 C1.78216164 -0.01902626 1.78216164 -0.01902626 3.60032654 -0.03843689 C4.88472122 -0.03550125 6.16911591 -0.03256561 7.49243164 -0.02954102 C8.8104628 -0.03478287 10.12849396 -0.04002472 11.48646545 -0.04542542 C14.27655604 -0.05435998 17.06636047 -0.05193011 19.85644531 -0.04199219 C23.42897424 -0.03050626 27.00051419 -0.05070459 30.57291317 -0.07990932 C33.98363843 -0.10268793 37.3941321 -0.09580413 40.80493164 -0.09204102 C42.72848732 -0.10889198 42.72848732 -0.10889198 44.69090271 -0.12608337 C45.88216263 -0.11670242 47.07342255 -0.10732147 48.30078125 -0.09765625 C49.34874374 -0.09749008 50.39670624 -0.09732391 51.47642517 -0.09715271 C54.95451422 0.5393759 56.13693053 1.5760161 58.21508789 4.40405273 C58.65814209 6.55548096 58.65814209 6.55548096 58.57739258 8.8972168 C58.5570697 9.77782776 58.53674683 10.65843872 58.51580811 11.56573486 C58.47328918 12.50753601 58.43077026 13.44933716 58.38696289 14.41967773 C58.35910706 15.39064392 58.33125122 16.36161011 58.30255127 17.36199951 C58.20925223 20.46031296 58.08753869 23.55676777 57.96508789 26.65405273 C57.89680686 28.75555516 57.83037825 30.85711864 57.76586914 32.95874023 C57.60375461 38.10813257 57.4161525 43.25604007 57.21508789 48.40405273 C56.10229788 47.46365583 54.99142502 46.52099005 53.88134766 45.57739258 C53.26252213 45.05269379 52.64369659 44.527995 52.00611877 43.98739624 C48.66698168 41.03546443 45.73904693 37.67349232 42.74243164 34.38061523 C40.32687309 32.1462843 40.32687309 32.1462843 37.05493164 31.98999023 C33.5404389 32.50241971 32.41610976 33.69510275 30.21508789 36.40405273 C26.8045252 35.2671985 26.01574624 34.25073305 23.77758789 31.52905273 C20.45519398 27.42676275 20.45519398 27.42676275 16.21508789 24.40405273 C12.71260213 24.3011595 10.32055113 24.57395203 7.46655273 26.71704102 C5.6962893 28.40433126 4.04155402 30.15164158 2.40258789 31.96655273 C0.37236565 34.15241771 -1.68031026 36.28767689 -3.78491211 38.40405273 C-4.44491211 38.40405273 -5.10491211 38.40405273 -5.78491211 38.40405273 C-6.11491211 39.39405273 -6.44491211 40.38405273 -6.78491211 41.40405273 C-7.44491211 41.40405273 -8.10491211 41.40405273 -8.78491211 41.40405273 C-8.85903261 36.0472314 -8.91349987 30.69070811 -8.94970703 25.33349609 C-8.96479971 23.51085206 -8.98527606 21.68824438 -9.01123047 19.86572266 C-9.04759313 17.24689773 -9.06463335 14.62855266 -9.07788086 12.00952148 C-9.09336472 11.19380173 -9.10884857 10.37808197 -9.12480164 9.53764343 C-9.1264786 3.90887942 -9.1264786 3.90887942 -7.62518311 1.69000244 C-5.03359518 -0.12095461 -3.14739291 0.01623936 0 0 Z " fill="#F7CD4C" transform="translate(16.784912109375,7.595947265625)"/>
<path d="M0 0 C1.27875 0.14308594 2.5575 0.28617188 3.875 0.43359375 C4.95394531 0.55432251 4.95394531 0.55432251 6.0546875 0.67749023 C8 1 8 1 10 2.0625 C12.82435019 7.5346785 10.58329585 14.47067275 9.4375 20.17578125 C8.87214719 23.82533555 8.93660272 27.3242718 9.125 31.00390625 C9 33 9 33 7 35 C6.33625322 37.72428626 6.33625322 37.72428626 5.88671875 40.92578125 C5.5918457 42.70952148 5.5918457 42.70952148 5.29101562 44.52929688 C4.8907828 47.03819971 4.50005025 49.54863772 4.11914062 52.06054688 C3.28262479 57.03929547 2.56279164 61.05842699 -0.04296875 65.41796875 C-6.64576401 68.95050783 -16.57779767 65.48692943 -23.71484375 64.22265625 C-24.69240128 64.05124619 -25.6699588 63.87983612 -26.67713928 63.70323181 C-28.72366247 63.34292706 -30.76983837 62.98064453 -32.81567383 62.61645508 C-35.95194871 62.05993614 -39.09011619 61.51509688 -42.22851562 60.97070312 C-44.22408367 60.61789568 -46.21953098 60.26440455 -48.21484375 59.91015625 C-49.15230942 59.74862564 -50.08977509 59.58709503 -51.0556488 59.42066956 C-51.92407913 59.26388229 -52.79250946 59.10709503 -53.68725586 58.94555664 C-54.44985214 58.81089493 -55.21244843 58.67623322 -55.99815369 58.53749084 C-58 58 -58 58 -61 56 C-60.29256149 55.99413376 -59.58512299 55.98826752 -58.85624695 55.98222351 C-52.19055068 55.92432899 -45.52517582 55.85227147 -38.85980511 55.76428509 C-35.43300921 55.71954972 -32.00633305 55.68030112 -28.5793457 55.65356445 C-24.6398769 55.62258953 -20.70091349 55.56779902 -16.76171875 55.51171875 C-15.53039719 55.50532883 -14.29907562 55.4989389 -13.03044128 55.49235535 C-11.88948502 55.47256119 -10.74852875 55.45276703 -9.57299805 55.43237305 C-8.567061 55.42126999 -7.56112396 55.41016693 -6.52470398 55.39872742 C-3.99532916 55.17857106 -3.99532916 55.17857106 -2.17871094 53.79260254 C-0.6005719 51.39254333 -0.60231761 49.75143489 -0.56762695 46.88598633 C-0.54783279 45.84513382 -0.52803864 44.80428131 -0.50764465 43.73188782 C-0.50125473 42.60993515 -0.49486481 41.48798248 -0.48828125 40.33203125 C-0.47033005 39.18208176 -0.45237885 38.03213226 -0.43388367 36.84733582 C-0.37963739 33.16909468 -0.34583829 29.49098436 -0.3125 25.8125 C-0.27933966 23.32094528 -0.24485122 20.82940785 -0.20898438 18.33789062 C-0.12390265 12.22537772 -0.05561344 6.11284818 0 0 Z " fill="#267FD4" transform="translate(74,19)"/>
<path d="M0 0 C0.495 1.98 0.495 1.98 1 4 C0.34 4 -0.32 4 -1 4 C-0.7525 5.36125 -0.7525 5.36125 -0.5 6.75 C0 10 0 10 0 14 C-6.48299216 15.42833046 -12.04759442 14.40718147 -18.515625 13.19921875 C-19.60840759 13.00278275 -20.70119019 12.80634674 -21.8270874 12.60395813 C-24.12754198 12.18791476 -26.42703359 11.76651543 -28.72558594 11.34008789 C-32.24959837 10.68757437 -35.7767003 10.05445706 -39.3046875 9.42382812 C-41.54187484 9.01676747 -43.7788616 8.60860251 -46.015625 8.19921875 C-47.07187073 8.00954025 -48.12811646 7.81986176 -49.21636963 7.62443542 C-50.19458679 7.44117203 -51.17280396 7.25790863 -52.18066406 7.0690918 C-53.4713681 6.83140327 -53.4713681 6.83140327 -54.78814697 6.58891296 C-57 6 -57 6 -60 4 C-59.29256149 3.99413376 -58.58512299 3.98826752 -57.85624695 3.98222351 C-51.19055068 3.92432899 -44.52517582 3.85227147 -37.85980511 3.76428509 C-34.43300921 3.71954972 -31.00633305 3.68030112 -27.5793457 3.65356445 C-23.6398769 3.62258953 -19.70091349 3.56779902 -15.76171875 3.51171875 C-14.53039719 3.50532883 -13.29907562 3.4989389 -12.03044128 3.49235535 C-10.88948502 3.47256119 -9.74852875 3.45276703 -8.57299805 3.43237305 C-7.567061 3.42126999 -6.56112396 3.41016693 -5.52470398 3.39872742 C-2.65439118 2.94541787 -1.76144436 2.25283872 0 0 Z " fill="#163B3C" transform="translate(73,71)"/>
<path d="M0 0 C5.38349392 1.00317421 8.43863494 4.41887076 12.25 8.19140625 C13.02142334 8.95122803 13.79284668 9.7110498 14.58764648 10.49389648 C18.64765051 14.8118776 21.33544899 18.14101852 21.55712891 24.18920898 C21.38556643 27.06060463 21.00002356 29.8224279 20.375 32.62890625 C15.52639052 28.605592 11.06838718 24.35502037 6.6484375 19.8671875 C4.5210401 17.772688 2.33291117 15.8159299 0.0625 13.87890625 C-2.8782225 11.36080256 -5.33698828 8.77492237 -7.625 5.62890625 C-3.56679202 0.85454392 -3.56679202 0.85454392 0 0 Z " fill="#D86433" transform="translate(53.625,38.37109375)"/>
<path d="M0 0 C1.4606285 2.64738916 2 3.89448334 2 7 C9.77121047 7.02316284 17.54241286 7.04093523 25.31364918 7.05181217 C28.92208385 7.05703236 32.53049492 7.06411436 36.13891602 7.07543945 C39.62076233 7.086299 43.10258592 7.09228336 46.58444786 7.09487724 C48.56035995 7.0976261 50.5362629 7.10543327 52.51216125 7.11329651 C54.31368904 7.11340981 54.31368904 7.11340981 56.15161133 7.11352539 C57.74045891 7.11685631 57.74045891 7.11685631 59.36140442 7.12025452 C62.10886811 7.11521522 62.10886811 7.11521522 65 6 C64.625 7.9375 64.625 7.9375 64 10 C61.35988123 11.32005938 59.36112364 11.14162112 56.40454102 11.16113281 C55.23315079 11.17074036 54.06176056 11.1803479 52.85487366 11.19024658 C51.58405441 11.19449646 50.31323517 11.19874634 49.00390625 11.203125 C47.70428452 11.20882507 46.40466278 11.21452515 45.06565857 11.22039795 C42.31256722 11.23090553 39.55950506 11.23674997 36.80639648 11.24023438 C33.27766367 11.24572293 29.749316 11.26975906 26.22070408 11.29820633 C22.85677842 11.32130052 19.49290713 11.32327997 16.12890625 11.328125 C14.86011124 11.3404718 13.59131622 11.3528186 12.28407288 11.36553955 C10.52225929 11.3610379 10.52225929 11.3610379 8.72485352 11.35644531 C7.6894191 11.36009094 6.65398468 11.36373657 5.58717346 11.36749268 C3 11 3 11 1.1605072 9.60540771 C-0.97262106 6.65450783 -0.17316685 3.5210593 0 0 Z " fill="#5D1913" transform="translate(8,64)"/>
<path d="M0 0 C1.19141098 -0.00630432 2.38282196 -0.01260864 3.6103363 -0.019104 C5.54937584 -0.01303131 5.54937584 -0.01303131 7.52758789 -0.00683594 C8.86275808 -0.00818287 10.1979278 -0.01012363 11.53309631 -0.01263428 C14.33330956 -0.01558528 17.13339531 -0.01128948 19.93359375 -0.00195312 C23.52279554 0.00943052 27.11169788 0.00288892 30.70088863 -0.00909805 C33.4589717 -0.0163268 36.21698384 -0.01402389 38.97506905 -0.00884247 C40.94211649 -0.0068591 42.90916668 -0.01293396 44.87620544 -0.019104 C46.07076859 -0.01279968 47.26533173 -0.00649536 48.49609375 0 C50.07589272 0.00238678 50.07589272 0.00238678 51.68760681 0.00482178 C54.31274414 0.25878906 54.31274414 0.25878906 57.31274414 2.25878906 C56.98274414 2.91878906 56.65274414 3.57878906 56.31274414 4.25878906 C55.81774414 3.76378906 55.81774414 3.76378906 55.31274414 3.25878906 C52.73923195 3.15399934 50.19906451 3.11834451 47.62524414 3.13378906 C46.42605347 3.1377771 46.42605347 3.1377771 45.20263672 3.1418457 C36.17818081 3.21041664 27.17456089 3.6537468 18.16333008 4.11767578 C15.2266127 4.26305285 12.28956127 4.39016875 9.35180664 4.51269531 C8.39121338 4.55402588 7.43062012 4.59535645 6.44091797 4.63793945 C4.60233586 4.71685198 2.76363179 4.79298559 0.92480469 4.8659668 C0.10020752 4.90278564 -0.72438965 4.93960449 -1.57397461 4.97753906 C-2.2980249 5.00783203 -3.0220752 5.038125 -3.76806641 5.06933594 C-5.90682738 5.20892306 -5.90682738 5.20892306 -8.68725586 6.25878906 C-7.55715394 0.60827948 -5.54271082 0.00838033 0 0 Z " fill="#FDEE94" transform="translate(16.687255859375,7.7412109375)"/>
<path d="M0 0 C1.32 0.33 2.64 0.66 4 1 C3.835 1.71929688 3.67 2.43859375 3.5 3.1796875 C3.01316515 5.92574034 2.93356835 8.34317465 3 11.125 C3.04007256 14.88180242 2.90136078 18.51511497 2.5 22.25 C2.04300431 26.83320314 1.85674724 31.39607488 1.8125 36 C1.79123047 37.8871875 1.79123047 37.8871875 1.76953125 39.8125 C1.74788236 43.15617993 1.74788236 43.15617993 4 46 C3.828125 49.06640625 3.828125 49.06640625 3.25 52.5625 C3.06953125 53.71878906 2.8890625 54.87507813 2.703125 56.06640625 C2 59 2 59 0 61 C-1.5625 59.25 -1.5625 59.25 -3 57 C-2.6875 54.75 -2.6875 54.75 -2 53 C-1.34 53 -0.68 53 0 53 C0 35.51 0 18.02 0 0 Z " fill="#2F66AA" transform="translate(74,22)"/>
<path d="M0 0 C0.495 1.98 0.495 1.98 1 4 C0.34 4 -0.32 4 -1 4 C-0.51421457 7.12290635 -0.0013988 9.99580359 1 13 C-4.46357353 13.20152525 -9.28436947 13.12343912 -14.578125 11.5703125 C-19.26767085 10.46600009 -24.11833525 10.09039059 -28.90234375 9.5625 C-29.92457031 9.376875 -30.94679687 9.19125 -32 9 C-32.33 8.34 -32.66 7.68 -33 7 C-32.17798096 7.00112793 -31.35596191 7.00225586 -30.5090332 7.00341797 C-26.77602442 6.99129524 -23.04505583 6.93363612 -19.3125 6.875 C-17.37213867 6.87886719 -17.37213867 6.87886719 -15.39257812 6.8828125 C-8.85176538 6.99004503 -8.85176538 6.99004503 -2.98974609 4.60644531 C-1.42003962 2.83224657 -1.42003962 2.83224657 0 0 Z " fill="#135E6E" transform="translate(73,71)"/>
<path d="M0 0 C1.9375 1.6875 1.9375 1.6875 3 4 C2.86177181 6.83367793 2.32555369 8.48596785 0.8125 10.875 C-1 12 -1 12 -4.0625 11.8125 C-7 11 -7 11 -9 9 C-9.33015665 5.89652746 -9.50531294 3.84218824 -7.875 1.125 C-5.08893958 -0.54663625 -3.18011138 -0.46376624 0 0 Z " fill="#FDFBF2" transform="translate(59,18)"/>
<path d="M0 0 C0.99 0 1.98 0 3 0 C2.67 14.19 2.34 28.38 2 43 C1.01 42.34 0.02 41.68 -1 41 C-1.28021324 38.45524154 -1.37227294 36.15709901 -1.328125 33.61328125 C-1.32625183 32.87804733 -1.32437866 32.14281342 -1.32244873 31.38529968 C-1.31571882 29.8259123 -1.30178567 28.26654207 -1.28125 26.70727539 C-1.25034832 24.33919285 -1.24030245 21.97177902 -1.234375 19.60351562 C-1.22519361 18.08592952 -1.21481425 16.56835011 -1.203125 15.05078125 C-1.19887512 14.34947586 -1.19462524 13.64817047 -1.19024658 12.9256134 C-1.12741861 8.51985115 -0.70525815 4.3371963 0 0 Z " fill="#D9A547" transform="translate(72,13)"/>
<path d="M0 0 C1.4606285 2.64738916 2 3.89448334 2 7 C9.77121047 7.02316284 17.54241286 7.04093523 25.31364918 7.05181217 C28.92208385 7.05703236 32.53049492 7.06411436 36.13891602 7.07543945 C39.62076233 7.086299 43.10258592 7.09228336 46.58444786 7.09487724 C48.56035995 7.0976261 50.5362629 7.10543327 52.51216125 7.11329651 C54.31368904 7.11340981 54.31368904 7.11340981 56.15161133 7.11352539 C57.74045891 7.11685631 57.74045891 7.11685631 59.36140442 7.12025452 C62.10886811 7.11521522 62.10886811 7.11521522 65 6 C64.67 7.32 64.34 8.64 64 10 C43.21 10 22.42 10 1 10 C-0.60725635 6.78548731 -0.05748185 3.56387464 0 0 Z " fill="#8A2219" transform="translate(8,64)"/>
<path d="M0 0 C6.44353213 -0.14247006 12.45844075 0.34126335 18.8125 1.375 C19.68036133 1.51075439 20.54822266 1.64650879 21.44238281 1.78637695 C23.96294906 2.18294167 26.4817022 2.58930155 29 3 C29.68819824 3.11166504 30.37639648 3.22333008 31.08544922 3.33837891 C34.39293531 3.87716659 37.69783735 4.42950442 41 5 C39 7 39 7 37.14892578 7.06665039 C29.3442637 6.12318474 21.61510785 4.8081441 13.875 3.4375 C12.52349545 3.20084072 11.17193326 2.96451031 9.8203125 2.72851562 C6.54629578 2.1555627 3.27289574 1.57931595 0 1 C0 0.67 0 0.34 0 0 Z " fill="#284845" transform="translate(32,79)"/>
<path d="M0 0 C0.33 0 0.66 0 1 0 C1 20.13 1 40.26 1 61 C0.67 61 0.34 61 0 61 C0 40.87 0 20.74 0 0 Z " fill="#DC8C29" transform="translate(6,11)"/>
<path d="M0 0 C19.47 0 38.94 0 59 0 C59 0.33 59 0.66 59 1 C39.53 1 20.06 1 0 1 C0 0.67 0 0.34 0 0 Z " fill="#FEED7B" transform="translate(12,6)"/>
<path d="M0 0 C0.99 0.99 1.98 1.98 3 3 C2.92578125 6.06640625 2.92578125 6.06640625 2.3125 9.5625 C2.12300781 10.71878906 1.93351562 11.87507813 1.73828125 13.06640625 C1 16 1 16 -1 18 C-2.5625 16.25 -2.5625 16.25 -4 14 C-3.6875 11.75 -3.6875 11.75 -3 10 C-2.34 10 -1.68 10 -1 10 C-0.67 6.7 -0.34 3.4 0 0 Z " fill="#268CB2" transform="translate(75,65)"/>
<path d="M0 0 C0.33 0 0.66 0 1 0 C1.16901036 4.02073838 1.33478828 8.04160389 1.5 12.0625 C1.54769531 13.19623047 1.59539063 14.32996094 1.64453125 15.49804688 C1.86925977 21.00389553 2.05981374 26.48965911 2 32 C2 32.99 2 33.98 2 35 C1.34 35 0.68 35 0 35 C0 23.45 0 11.9 0 0 Z " fill="#EDBB42" transform="translate(8,14)"/>
<path d="M0 0 C9.24 0 18.48 0 28 0 C28 0.33 28 0.66 28 1 C22.39 1 16.78 1 11 1 C11 1.66 11 2.32 11 3 C9.35333797 2.8864371 7.70763918 2.75882619 6.0625 2.625 C5.14597656 2.55539063 4.22945312 2.48578125 3.28515625 2.4140625 C2.15400391 2.20910156 2.15400391 2.20910156 1 2 C0.67 1.34 0.34 0.68 0 0 Z " fill="#115059" transform="translate(40,78)"/>
<path d="M0 0 C0.99 0.33 1.98 0.66 3 1 C2.835 1.71929688 2.67 2.43859375 2.5 3.1796875 C2.01316515 5.92574034 1.93356835 8.34317465 2 11.125 C2.06178841 16.80181031 1.61090815 22.36000871 1 28 C0.67 28 0.34 28 0 28 C0 18.76 0 9.52 0 0 Z " fill="#186CC8" transform="translate(75,22)"/>
<path d="M0 0 C0.33 0.66 0.66 1.32 1 2 C1.66 2 2.32 2 3 2 C3.28571429 10.57142857 3.28571429 10.57142857 1 14 C-1.36574234 10.4513865 -1.10865265 9.4235475 -0.625 5.3125 C-0.51414062 4.31863281 -0.40328125 3.32476562 -0.2890625 2.30078125 C-0.19367188 1.54152344 -0.09828125 0.78226563 0 0 Z " fill="#3691DE" transform="translate(76,54)"/>
<path d="M0 0 C0.66 0.33 1.32 0.66 2 1 C-1.3 3.97 -4.6 6.94 -8 10 C-8.66 9.67 -9.32 9.34 -10 9 C-8.71142987 7.68445979 -7.41904109 6.37265903 -6.125 5.0625 C-5.04605469 3.96615234 -5.04605469 3.96615234 -3.9453125 2.84765625 C-2 1 -2 1 0 0 Z " fill="#D35B2B" transform="translate(28,31)"/>
<path d="M0 0 C7.50769231 0.49230769 7.50769231 0.49230769 10 3.0625 C10.33 3.701875 10.66 4.34125 11 5 C9.35 4.67 7.7 4.34 6 4 C6 3.34 6 2.68 6 2 C4.35 2 2.7 2 1 2 C0.67 1.34 0.34 0.68 0 0 Z " fill="#6FC2F4" transform="translate(74,19)"/>
<path d="M0 0 C1.4606285 2.64738916 2 3.89448334 2 7 C3.65 7.33 5.3 7.66 7 8 C7 8.33 7 8.66 7 9 C5.02 9.33 3.04 9.66 1 10 C-0.60725635 6.78548731 -0.05748185 3.56387464 0 0 Z " fill="#8C3025" transform="translate(8,64)"/>
<path d="M0 0 C0.33 0 0.66 0 1 0 C1 2.64 1 5.28 1 8 C0.67 8 0.34 8 0 8 C0 5.36 0 2.72 0 0 Z " fill="#3780D1" transform="translate(86,23)"/>
<path d="M0 0 C0.66 1.32 1.32 2.64 2 4 C1.01 4.495 1.01 4.495 0 5 C0 3.35 0 1.7 0 0 Z " fill="#AE9669" transform="translate(76,13)"/>
<path d="M0 0 C1.65 0 3.3 0 5 0 C5 0.33 5 0.66 5 1 C3.35 1 1.7 1 0 1 C0 0.67 0 0.34 0 0 Z " fill="#1A3F42" transform="translate(61,86)"/>
<path d="M0 0 C1.65 0 3.3 0 5 0 C5 0.33 5 0.66 5 1 C3.35 1 1.7 1 0 1 C0 0.67 0 0.34 0 0 Z " fill="#1E3C3E" transform="translate(56,85)"/>
<path d="M0 0 C1.65 0 3.3 0 5 0 C5 0.33 5 0.66 5 1 C3.35 1 1.7 1 0 1 C0 0.67 0 0.34 0 0 Z " fill="#1C4343" transform="translate(49,84)"/>
<path d="M0 0 C1.65 0 3.3 0 5 0 C5 0.33 5 0.66 5 1 C3.35 1 1.7 1 0 1 C0 0.67 0 0.34 0 0 Z " fill="#1D4041" transform="translate(44,83)"/>
<path d="M0 0 C1.65 0 3.3 0 5 0 C5 0.33 5 0.66 5 1 C3.35 1 1.7 1 0 1 C0 0.67 0 0.34 0 0 Z " fill="#1A383C" transform="translate(39,82)"/>
<path d="M0 0 C1.65 0 3.3 0 5 0 C5 0.33 5 0.66 5 1 C3.35 1 1.7 1 0 1 C0 0.67 0 0.34 0 0 Z " fill="#1C4140" transform="translate(32,81)"/>
<path d="M0 0 C1.65 0 3.3 0 5 0 C5 0.33 5 0.66 5 1 C3.35 1 1.7 1 0 1 C0 0.67 0 0.34 0 0 Z " fill="#203F3D" transform="translate(27,80)"/>
<path d="M0 0 C1.65 0 3.3 0 5 0 C5 0.33 5 0.66 5 1 C3.35 1 1.7 1 0 1 C0 0.67 0 0.34 0 0 Z " fill="#173433" transform="translate(22,79)"/>
<path d="M0 0 C0.33 0 0.66 0 1 0 C1 1.65 1 3.3 1 5 C0.67 5 0.34 5 0 5 C0 3.35 0 1.7 0 0 Z " fill="#268EB5" transform="translate(78,71)"/>
<path d="M0 0 C0.33 0 0.66 0 1 0 C1 1.65 1 3.3 1 5 C0.67 5 0.34 5 0 5 C0 3.35 0 1.7 0 0 Z " fill="#3993DF" transform="translate(80,59)"/>
<path d="M0 0 C0.33 0 0.66 0 1 0 C1 1.65 1 3.3 1 5 C0.67 5 0.34 5 0 5 C0 3.35 0 1.7 0 0 Z " fill="#368CDB" transform="translate(81,54)"/>
<path d="M0 0 C0.33 0 0.66 0 1 0 C1 1.65 1 3.3 1 5 C0.67 5 0.34 5 0 5 C0 3.35 0 1.7 0 0 Z " fill="#297CD5" transform="translate(83,42)"/>
<path d="M0 0 C0.33 0 0.66 0 1 0 C1 1.65 1 3.3 1 5 C0.67 5 0.34 5 0 5 C0 3.35 0 1.7 0 0 Z " fill="#2777CF" transform="translate(84,37)"/>
<path d="M0 0 C4 1 4 1 4 1 Z " fill="#234543" transform="translate(67,87)"/>
<path d="M0 0 C1 4 1 4 1 4 Z " fill="#228CB6" transform="translate(77,76)"/>
<path d="M0 0 C4 1 4 1 4 1 Z " fill="#143735" transform="translate(16,78)"/>
<path d="M0 0 C1 4 1 4 1 4 Z " fill="#3594D0" transform="translate(79,65)"/>
<path d="M0 0 C1 4 1 4 1 4 Z " fill="#2C74C9" transform="translate(85,31)"/>
<path d="M0 0 C3 1 3 1 3 1 Z " fill="#56B4F8" transform="translate(79,18)"/>
<path d="M0 0 C2 1 2 1 2 1 Z " fill="#154651" transform="translate(71,86)"/>
<path d="" fill="#247A97" transform="translate(0,0)"/>
<path d="M0 0 C2 1 2 1 2 1 Z " fill="#2B221E" transform="translate(14,77)"/>
<path d="M0 0 C2 1 2 1 2 1 Z " fill="#531D17" transform="translate(11,76)"/>
<path d="M0 0 C2 1 2 1 2 1 Z " fill="#5F1D19" transform="translate(9,75)"/>
<path d="" fill="#63261F" transform="translate(0,0)"/>
<path d="M0 0 C2 1 2 1 2 1 Z " fill="#F4D283" transform="translate(71,7)"/>
<path d="" fill="#1A4C52" transform="translate(0,0)"/>
<path d="" fill="#145B6F" transform="translate(0,0)"/>
<path d="" fill="#165868" transform="translate(0,0)"/>
<path d="" fill="#66BEF6" transform="translate(0,0)"/>
<path d="" fill="#1EA1F0" transform="translate(0,0)"/>
<path d="" fill="#42B5F7" transform="translate(0,0)"/>
<path d="" fill="#81D2FE" transform="translate(0,0)"/>
<path d="" fill="#DDB882" transform="translate(0,0)"/>
<path d="" fill="#FDF9BC" transform="translate(0,0)"/>
<path d="" fill="#F0DFD1" transform="translate(0,0)"/>
<path d="" fill="#FEF6A6" transform="translate(0,0)"/>
<path d="" fill="#F2DFCA" transform="translate(0,0)"/>
<path d="" fill="#FEFAB2" transform="translate(0,0)"/>
<path d="" fill="#FEFDD0" transform="translate(0,0)"/>
</svg>
