<?xml version="1.0" encoding="UTF-8"?>
<svg version="1.1" xmlns="http://www.w3.org/2000/svg" width="38" height="36">
<path d="M0 0 C12.54 0 25.08 0 38 0 C38 11.88 38 23.76 38 36 C25.46 36 12.92 36 0 36 C0 24.12 0 12.24 0 0 Z " fill="#FEF9FA" transform="translate(0,0)"/>
<path d="M0 0 C1.24652344 -0.01417969 2.49304688 -0.02835937 3.77734375 -0.04296875 C7.0625 0.1875 7.0625 0.1875 10.0625 2.1875 C10.36650756 4.9265485 10.48079599 7.39013633 10.4375 10.125 C10.44910156 10.85396484 10.46070312 11.58292969 10.47265625 12.33398438 C10.45672068 15.23160209 10.38458677 17.5968138 8.98046875 20.171875 C5.99547119 21.75252544 3.34587492 21.54498074 0 21.5 C-1.24910156 21.49613281 -2.49820312 21.49226563 -3.78515625 21.48828125 C-6.9375 21.1875 -6.9375 21.1875 -8.9375 19.1875 C-9.16455078 17.30810547 -9.16455078 17.30810547 -9.1328125 15.0546875 C-9.12636719 14.24902344 -9.11992187 13.44335938 -9.11328125 12.61328125 C-9.08814453 11.35064453 -9.08814453 11.35064453 -9.0625 10.0625 C-9.05347656 9.21300781 -9.04445313 8.36351562 -9.03515625 7.48828125 C-9.01155647 5.38790116 -8.97568483 3.28766556 -8.9375 1.1875 C-5.98162889 -0.29043555 -3.28752355 0.01696349 0 0 Z " fill="#D53F5A" transform="translate(15.9375,7.8125)"/>
<path d="M0 0 C0.0809313 2.60478883 0.14045434 5.20706653 0.1875 7.8125 C0.21263672 8.55048828 0.23777344 9.28847656 0.26367188 10.04882812 C0.30347648 12.98110096 0.33273624 15.37367296 -1.0625 18 C-4.09528573 19.56530876 -6.81144345 19.28041899 -10.1875 19.1875 C-12.09595703 19.14689453 -12.09595703 19.14689453 -14.04296875 19.10546875 C-15.01878906 19.07066406 -15.99460937 19.03585938 -17 19 C-17.33 18.34 -17.66 17.68 -18 17 C-12.72 17 -7.44 17 -2 17 C-2 15.02 -2 13.04 -2 11 C-2.886875 11.33 -3.77375 11.66 -4.6875 12 C-9.8947906 13.57201226 -9.8947906 13.57201226 -13 13 C-15.3125 10.5 -15.3125 10.5 -17 8 C-14.13301658 4.50586395 -12.15849852 2.71163126 -7.6875 2.1875 C-5.8621875 2.0946875 -5.8621875 2.0946875 -4 2 C-4.66 1.34 -5.32 0.68 -6 0 C-3 -1 -3 -1 0 0 Z " fill="#D94B64" transform="translate(26,10)"/>
<path d="M0 0 C3 0.5625 3 0.5625 5.375 3.0625 C5.91125 3.8875 6.4475 4.7125 7 5.5625 C4.52501748 7.82534116 2.74961959 9.39794936 -0.5625 10.125 C-4.01800197 9.32757647 -5.0680833 7.42459882 -7 4.5625 C-4.74851506 1.79144161 -3.56289027 0.66804193 0 0 Z " fill="#FEBECA" transform="translate(16,13.4375)"/>
<path d="M0 0 C0 5.28 0 10.56 0 16 C-4 15 -4 15 -6 14 C-6.10815225 12.23050905 -6.18566083 10.45912513 -6.25 8.6875 C-6.29640625 7.70136719 -6.3428125 6.71523438 -6.390625 5.69921875 C-6 3 -6 3 -4.109375 1.14453125 C-2 0 -2 0 0 0 Z " fill="#D54A62" transform="translate(33,10)"/>
<path d="M0 0 C0 1.98 0 3.96 0 6 C-5.28 6 -10.56 6 -16 6 C-16 4.35 -16 2.7 -16 1 C-15.484375 1.165 -14.96875 1.33 -14.4375 1.5 C-11.21876586 2.16025316 -8.27722861 2.17875792 -5 2 C-2 0 -2 0 0 0 Z " fill="#EC294B" transform="translate(24,21)"/>
<path d="M0 0 C1.18851563 0.00902344 2.37703125 0.01804687 3.6015625 0.02734375 C4.51679688 0.03894531 5.43203125 0.05054688 6.375 0.0625 C6.375 1.39583333 6.375 2.72916667 6.375 4.0625 C2.745 4.3925 -0.885 4.7225 -4.625 5.0625 C-4.955 4.4025 -5.285 3.7425 -5.625 3.0625 C-5.625 4.0525 -5.625 5.0425 -5.625 6.0625 C-6.615 6.0625 -7.605 6.0625 -8.625 6.0625 C-8.625 4.4125 -8.625 2.7625 -8.625 1.0625 C-5.74084117 -0.37957941 -3.20778472 -0.03144887 0 0 Z " fill="#E8294C" transform="translate(16.625,8.9375)"/>
<path d="M0 0 C1.65 0 3.3 0 5 0 C4.51917969 0.37769531 4.03835937 0.75539063 3.54296875 1.14453125 C1.46337042 3.64531405 1.50158423 5.47306804 1.3125 8.6875 C1.24675781 9.68136719 1.18101563 10.67523438 1.11328125 11.69921875 C1.07589844 12.45847656 1.03851562 13.21773437 1 14 C1.99 14.33 2.98 14.66 4 15 C2.68 15.33 1.36 15.66 0 16 C0 10.72 0 5.44 0 0 Z " fill="#FEDDE5" transform="translate(26,10)"/>
<path d="M0 0 C0.99 0 1.98 0 3 0 C3 2.97 3 5.94 3 9 C2.01 8.67 1.02 8.34 0 8 C0 5.36 0 2.72 0 0 Z " fill="#F12A4F" transform="translate(29,14)"/>
<path d="M0 0 C1.65 0.33 3.3 0.66 5 1 C4.67 2.32 4.34 3.64 4 5 C2.35 4.67 0.7 4.34 -1 4 C-0.67 2.68 -0.34 1.36 0 0 Z " fill="#D34961" transform="translate(14,16)"/>
<path d="M0 0 C1.32 0.66 2.64 1.32 4 2 C3.01 3.32 2.02 4.64 1 6 C0.01 5.67 -0.98 5.34 -2 5 C-1.34 3.35 -0.68 1.7 0 0 Z " fill="#FFD4E0" transform="translate(19,16)"/>
</svg>
